{"glyphs":{"0":{"ha":1028,"x_min":0,"x_max":0,"o":"m 35 465 b 514 -25 35 168 225 -25 b 993 465 803 -25 993 168 b 514 956 993 763 803 956 b 35 465 225 956 35 763 z m 268 465 b 514 756 268 651 357 756 b 760 465 671 756 760 651 b 514 175 760 279 671 175 b 268 465 357 175 268 279 z "},"1":{"ha":479,"x_min":0,"x_max":0,"o":"m 199 624 l 199 0 l 426 0 l 426 931 l 244 931 b 14 785 222 833 161 792 l 14 624 z "},"2":{"ha":944,"x_min":0,"x_max":0,"o":"m 269 557 b 492 758 274 696 343 758 b 672 638 621 758 672 714 b 476 471 672 543 606 513 l 56 336 l 56 0 l 906 0 l 906 197 l 283 197 l 283 217 l 549 293 b 906 642 774 358 906 443 b 492 958 906 838 746 958 b 36 557 215 958 43 807 z "},"3":{"ha":957,"x_min":0,"x_max":0,"o":"m 28 332 b 482 -28 35 115 213 -28 b 922 299 740 -28 922 103 b 622 586 922 467 813 571 l 900 746 l 900 931 l 54 931 l 54 736 l 554 736 l 272 560 l 375 404 b 504 419 424 414 467 419 b 689 299 622 419 689 375 b 482 169 689 217 619 169 b 261 332 340 169 265 228 z "},"4":{"ha":975,"x_min":0,"x_max":0,"o":"m 597 203 l 597 0 l 825 0 l 825 203 l 968 203 l 968 397 l 825 397 l 825 931 l 467 931 l 14 424 l 14 203 z m 578 744 l 597 744 l 597 397 l 276 397 z "},"5":{"ha":933,"x_min":0,"x_max":0,"o":"m 28 308 b 475 -28 46 106 215 -28 b 901 310 726 -28 901 110 b 517 640 901 522 753 640 b 285 568 415 640 326 600 l 265 568 l 283 736 l 867 736 l 867 931 l 94 931 l 44 381 l 269 381 b 481 450 340 439 428 450 b 671 311 593 450 671 413 b 475 169 671 228 603 169 b 263 308 344 169 275 219 z "},"6":{"ha":969,"x_min":0,"x_max":0,"o":"m 35 467 b 507 -28 35 156 208 -28 b 933 286 765 -28 933 90 b 536 596 933 467 778 596 b 263 511 433 596 329 565 b 486 761 272 675 357 761 b 696 626 614 761 679 721 l 928 626 b 485 958 903 836 740 958 b 35 467 207 958 35 767 z m 311 286 b 506 403 311 349 372 403 b 700 286 643 403 700 353 b 506 169 700 214 638 169 b 311 286 381 169 311 222 z "},"7":{"ha":869,"x_min":0,"x_max":0,"o":"m 631 736 l 179 0 l 433 0 l 851 722 l 851 931 l 18 931 l 18 736 z "},"8":{"ha":942,"x_min":0,"x_max":0,"o":"m 28 249 b 471 -28 28 75 188 -28 b 914 249 754 -28 914 75 b 744 476 914 365 842 447 l 744 496 b 890 689 828 519 890 588 b 471 958 890 854 726 958 b 51 689 215 958 51 854 b 197 496 51 588 115 519 l 197 476 b 28 249 100 447 28 365 z m 283 665 b 471 764 283 733 353 764 b 658 665 589 764 658 733 b 471 571 658 601 589 571 b 283 665 353 571 283 601 z m 261 281 b 471 393 261 356 332 393 b 681 281 610 393 681 356 b 471 167 681 206 610 167 b 261 281 332 167 261 206 z "},"9":{"ha":969,"x_min":0,"x_max":0,"o":"m 29 306 b 483 -28 67 88 219 -28 b 935 464 761 -28 935 163 b 463 958 935 775 761 958 b 36 644 204 958 36 840 b 433 335 36 464 192 335 b 707 419 536 335 640 365 b 474 169 699 269 625 169 b 263 306 356 169 286 210 z m 269 644 b 464 761 269 717 332 761 b 658 644 589 761 658 708 b 464 528 658 582 597 528 b 269 644 326 528 269 578 z "}," ":{"ha":347,"x_min":0,"x_max":0,"o":""},"A":{"ha":1117,"x_min":0,"x_max":0,"o":"m 250 0 l 350 250 l 767 250 l 867 0 l 1115 0 l 715 931 l 401 931 l 1 0 z m 549 747 l 568 747 l 692 439 l 425 439 z "},"B":{"ha":990,"x_min":0,"x_max":0,"o":"m 676 0 b 963 254 865 0 963 100 b 772 468 963 371 888 447 l 772 488 b 946 692 882 513 946 576 b 676 931 946 838 846 931 l 53 931 l 53 0 z m 281 739 l 610 739 b 714 654 681 739 714 717 b 610 571 714 592 681 571 l 281 571 z m 281 379 l 614 379 b 731 285 693 379 731 354 b 614 192 731 215 693 192 l 281 192 z "},"C":{"ha":1118,"x_min":0,"x_max":0,"o":"m 35 465 b 560 -28 35 176 254 -28 b 1083 417 858 -28 1063 149 l 850 417 b 560 172 835 261 731 172 b 268 465 382 172 268 288 b 560 758 268 643 382 758 b 847 522 728 758 831 672 l 1083 522 b 560 958 1058 786 856 958 b 35 465 254 958 35 754 z "},"D":{"ha":1039,"x_min":0,"x_max":0,"o":"m 564 0 b 1004 465 843 0 1004 169 b 564 931 1004 761 843 931 l 53 931 l 53 0 z m 281 736 l 547 736 b 774 465 711 736 774 657 b 547 194 774 274 711 194 l 281 194 z "},"E":{"ha":888,"x_min":0,"x_max":0,"o":"m 843 0 l 843 194 l 281 194 l 281 382 l 824 382 l 824 576 l 281 576 l 281 736 l 838 736 l 838 931 l 53 931 l 53 0 z "},"F":{"ha":876,"x_min":0,"x_max":0,"o":"m 281 0 l 281 378 l 831 378 l 831 572 l 281 572 l 281 736 l 838 736 l 838 931 l 53 931 l 53 0 z "},"G":{"ha":1114,"x_min":0,"x_max":0,"o":"m 35 465 b 560 -28 35 176 254 -28 b 1078 517 894 -28 1103 179 l 583 517 l 583 322 l 831 322 b 560 172 793 222 694 172 b 268 465 382 172 268 288 b 560 758 268 643 382 758 b 822 611 694 758 788 704 l 1060 611 b 560 958 1015 821 824 958 b 35 465 254 958 35 754 z "},"H":{"ha":1007,"x_min":0,"x_max":0,"o":"m 281 0 l 281 378 l 726 378 l 726 0 l 954 0 l 954 931 l 726 931 l 726 572 l 281 572 l 281 931 l 53 931 l 53 0 z "},"I":{"ha":333,"x_min":0,"x_max":0,"o":"m 281 0 l 281 931 l 53 931 l 53 0 z "},"J":{"ha":879,"x_min":0,"x_max":0,"o":"m 25 331 b 433 -28 25 111 185 -28 b 826 331 669 -28 826 114 l 826 931 l 599 931 l 599 321 b 433 167 599 219 539 167 b 253 321 313 167 253 219 l 253 428 l 25 428 z "},"K":{"ha":976,"x_min":0,"x_max":0,"o":"m 281 0 l 281 376 l 300 376 l 661 0 l 975 0 l 497 475 l 965 931 l 664 931 l 300 571 l 281 571 l 281 931 l 53 931 l 53 0 z "},"L":{"ha":744,"x_min":0,"x_max":0,"o":"m 731 0 l 731 194 l 281 194 l 281 931 l 53 931 l 53 0 z "},"M":{"ha":1256,"x_min":0,"x_max":0,"o":"m 278 0 l 278 739 l 297 739 l 479 0 l 776 0 l 958 739 l 978 739 l 978 0 l 1203 0 l 1203 931 l 799 931 l 628 208 l 457 931 l 53 931 l 53 0 z "},"N":{"ha":1064,"x_min":0,"x_max":0,"o":"m 279 0 l 279 739 l 299 739 l 626 0 l 1011 0 l 1011 931 l 785 931 l 785 192 l 765 192 l 438 931 l 53 931 l 53 0 z "},"O":{"ha":1121,"x_min":0,"x_max":0,"o":"m 35 465 b 560 -28 35 176 254 -28 b 1086 465 867 -28 1086 176 b 560 958 1086 754 867 958 b 35 465 254 958 35 754 z m 268 465 b 560 758 268 643 382 758 b 853 465 739 758 853 644 b 560 172 853 286 739 172 b 268 465 382 172 268 288 z "},"P":{"ha":950,"x_min":0,"x_max":0,"o":"m 281 0 l 281 364 l 594 364 b 922 647 808 364 922 460 b 594 931 922 835 808 931 l 53 931 l 53 0 z m 281 736 l 596 736 b 692 647 663 736 692 708 b 596 558 692 586 663 558 l 281 558 z "},"Q":{"ha":1121,"x_min":0,"x_max":0,"o":"m 35 465 b 560 -28 35 176 254 -28 b 803 21 649 -28 732 -10 l 875 -71 l 1132 -71 l 967 140 b 1086 465 1043 225 1086 336 b 560 958 1086 754 867 958 b 35 465 254 958 35 754 z m 268 465 b 560 758 268 643 382 758 b 853 465 739 758 853 644 b 824 324 853 411 843 364 l 665 525 l 501 406 l 671 189 b 560 172 638 178 600 172 b 268 465 382 172 268 288 z "},"R":{"ha":994,"x_min":0,"x_max":0,"o":"m 281 0 l 281 381 l 544 381 b 703 258 657 381 689 351 l 743 0 l 974 0 l 917 310 b 803 460 900 404 885 435 l 803 479 b 960 683 872 497 960 554 b 646 931 960 854 835 931 l 53 931 l 53 0 z m 281 736 l 625 736 b 728 654 694 736 728 715 b 625 572 728 592 694 572 l 281 572 z "},"S":{"ha":997,"x_min":0,"x_max":0,"o":"m 18 372 b 524 -28 38 119 221 -28 b 967 267 799 -28 967 79 b 676 538 967 414 867 504 l 374 592 b 272 669 299 606 274 625 b 478 761 274 728 332 761 b 718 581 629 761 707 704 l 951 581 b 478 958 935 817 760 958 b 42 667 213 958 42 847 b 332 400 42 522 149 433 l 631 346 b 736 261 714 331 736 307 b 524 169 736 201 674 169 b 251 372 351 169 265 232 z "},"T":{"ha":858,"x_min":0,"x_max":0,"o":"m 315 736 l 315 0 l 543 0 l 543 736 l 840 736 l 840 931 l 18 931 l 18 736 z "},"U":{"ha":1014,"x_min":0,"x_max":0,"o":"m 53 381 b 507 -28 53 115 214 -28 b 961 381 800 -28 961 115 l 961 931 l 733 931 l 733 381 b 507 169 733 233 667 169 b 281 381 347 169 281 233 l 281 931 l 53 931 z "},"V":{"ha":1067,"x_min":0,"x_max":0,"o":"m 378 0 l 689 0 l 1065 931 l 824 931 l 543 189 l 524 189 l 243 931 l 1 931 z "},"W":{"ha":1439,"x_min":0,"x_max":0,"o":"m 203 0 l 550 0 l 719 719 l 889 0 l 1236 0 l 1435 931 l 1200 931 l 1068 189 l 1049 189 l 871 931 l 568 931 l 390 189 l 371 189 l 239 931 l 4 931 z "},"X":{"ha":1050,"x_min":0,"x_max":0,"o":"m 282 0 l 525 324 l 768 0 l 1049 0 l 657 483 l 1019 931 l 740 931 l 525 643 l 310 931 l 31 931 l 393 483 l 1 0 z "},"Y":{"ha":986,"x_min":0,"x_max":0,"o":"m 379 329 l 379 0 l 607 0 l 607 329 l 985 931 l 715 931 l 503 538 l 483 538 l 271 931 l 1 931 z "},"Z":{"ha":951,"x_min":0,"x_max":0,"o":"m 917 0 l 917 194 l 276 194 l 276 214 l 910 650 l 910 931 l 39 931 l 39 736 l 668 736 l 668 717 l 35 281 l 35 0 z "},"a":{"ha":829,"x_min":0,"x_max":0,"o":"m 226 429 b 407 551 235 511 288 551 b 579 422 538 551 579 513 l 579 389 b 374 410 517 401 446 410 b 42 189 171 410 42 328 b 310 -21 42 57 150 -21 b 568 88 424 -21 511 21 l 582 88 l 596 0 l 788 0 l 788 421 b 407 718 788 619 658 718 b 21 429 168 718 35 611 z m 253 210 b 388 276 253 254 299 276 b 585 260 451 276 522 271 b 368 146 561 189 475 146 b 253 210 299 146 253 164 z "},"b":{"ha":901,"x_min":0,"x_max":0,"o":"m 238 0 l 251 85 l 265 85 b 514 -21 313 25 399 -21 b 874 347 715 -21 874 128 b 514 715 874 567 715 715 b 268 610 399 715 315 669 l 254 610 l 254 931 l 46 931 l 46 0 z m 250 347 b 456 540 250 461 324 540 b 661 347 588 540 661 469 b 456 154 661 225 588 154 b 250 347 324 154 250 233 z "},"c":{"ha":885,"x_min":0,"x_max":0,"o":"m 28 347 b 443 -21 28 129 199 -21 b 857 310 675 -21 843 114 l 643 310 b 443 154 632 213 560 154 b 242 347 314 154 242 225 b 443 540 242 469 314 540 b 639 390 554 540 625 485 l 853 390 b 443 715 836 582 669 715 b 28 347 199 715 28 565 z "},"d":{"ha":901,"x_min":0,"x_max":0,"o":"m 856 931 l 647 931 l 647 610 l 633 610 b 388 715 586 669 503 715 b 28 347 186 715 28 567 b 388 -21 28 128 186 -21 b 636 85 503 -21 589 25 l 650 85 l 664 0 l 856 0 z m 651 347 b 446 154 651 233 578 154 b 240 347 314 154 240 225 b 446 540 240 469 314 540 b 651 347 578 540 651 461 z "},"e":{"ha":878,"x_min":0,"x_max":0,"o":"m 28 347 b 442 -21 28 128 196 -21 b 850 254 656 -21 811 89 l 629 254 b 442 151 601 190 538 151 b 242 300 333 151 257 210 l 846 300 b 440 715 867 556 696 715 b 28 347 197 715 28 567 z m 247 433 b 443 546 261 503 347 546 b 622 433 539 546 608 503 z "},"f":{"ha":603,"x_min":0,"x_max":0,"o":"m 147 514 l 147 0 l 356 0 l 356 514 l 565 514 l 565 681 l 356 681 l 356 718 b 396 757 356 749 365 757 l 572 757 l 572 932 l 347 932 b 147 749 201 932 147 885 l 147 681 l 7 681 l 7 514 z "},"g":{"ha":901,"x_min":0,"x_max":0,"o":"m 28 369 b 388 24 28 165 186 24 b 633 129 503 24 586 69 l 647 129 l 647 71 b 444 -111 647 -57 586 -111 b 247 -3 329 -111 261 -69 l 39 -3 b 444 -278 54 -165 221 -278 b 856 71 700 -278 856 -147 l 856 694 l 664 694 l 650 610 l 636 610 b 388 715 589 669 503 715 b 28 369 186 715 28 574 z m 242 369 b 446 544 242 472 314 544 b 650 369 578 544 650 464 b 446 194 650 275 578 194 b 242 369 314 194 242 267 z "},"h":{"ha":868,"x_min":0,"x_max":0,"o":"m 254 0 l 254 347 b 451 538 254 472 332 538 b 618 349 581 538 618 478 l 618 0 l 826 0 l 826 379 b 507 715 826 607 701 715 b 268 607 397 715 315 668 l 254 607 l 254 931 l 46 931 l 46 0 z "},"i":{"ha":300,"x_min":0,"x_max":0,"o":"m -3 886 b 150 768 -3 819 61 768 b 303 886 239 768 303 819 b 150 1004 303 953 239 1004 b -3 886 61 1004 -3 953 z m 254 694 l 46 694 l 46 0 l 254 0 z "},"j":{"ha":300,"x_min":0,"x_max":0,"o":"m -3 886 b 150 768 -3 819 61 768 b 303 886 239 768 303 819 b 150 1004 303 953 240 1004 b -3 886 61 1004 -3 953 z m 254 694 l 46 694 l 46 -250 l 254 -250 z "},"k":{"ha":803,"x_min":0,"x_max":0,"o":"m 254 0 l 254 303 l 268 303 l 539 0 l 817 0 l 447 389 l 786 694 l 503 694 l 268 469 l 254 469 l 254 931 l 46 931 l 46 0 z "},"l":{"ha":297,"x_min":0,"x_max":0,"o":"m 251 931 l 46 931 l 46 0 l 251 0 z "},"m":{"ha":1315,"x_min":0,"x_max":0,"o":"m 254 0 l 254 356 b 419 535 254 458 315 535 b 556 363 524 535 556 478 l 556 0 l 764 0 l 764 358 b 929 535 764 461 825 535 b 1065 363 1033 535 1065 478 l 1065 0 l 1274 0 l 1274 422 b 993 715 1274 592 1174 715 b 735 592 871 715 789 663 l 721 592 b 483 715 668 663 594 715 b 265 607 378 715 313 667 l 251 607 l 238 694 l 46 694 l 46 0 z "},"n":{"ha":868,"x_min":0,"x_max":0,"o":"m 254 0 l 254 347 b 451 538 254 472 332 538 b 618 349 581 538 618 478 l 618 0 l 826 0 l 826 379 b 507 715 826 607 701 715 b 265 607 397 715 313 668 l 251 607 l 238 694 l 46 694 l 46 0 z "},"o":{"ha":886,"x_min":0,"x_max":0,"o":"m 28 347 b 443 -21 28 129 199 -21 b 858 347 688 -21 858 129 b 443 715 858 565 688 715 b 28 347 199 715 28 565 z m 242 347 b 443 540 242 469 314 540 b 644 347 572 540 644 469 b 443 154 644 225 572 154 b 242 347 314 154 242 225 z "},"p":{"ha":901,"x_min":0,"x_max":0,"o":"m 254 -250 l 254 85 l 268 85 b 514 -21 315 25 399 -21 b 874 347 715 -21 874 128 b 514 715 874 567 715 715 b 265 610 399 715 313 669 l 251 610 l 238 694 l 46 694 l 46 -250 z m 250 347 b 456 540 250 461 324 540 b 661 347 588 540 661 469 b 456 154 661 225 588 154 b 250 347 324 154 250 233 z "},"q":{"ha":901,"x_min":0,"x_max":0,"o":"m 856 694 l 664 694 l 650 610 l 636 610 b 388 715 589 669 503 715 b 28 347 186 715 28 567 b 388 -21 28 128 186 -21 b 633 85 503 -21 586 25 l 647 85 l 647 -250 l 856 -250 z m 651 347 b 446 154 651 233 578 154 b 240 347 314 154 240 225 b 446 540 240 469 314 540 b 651 347 578 540 651 461 z "},"r":{"ha":797,"x_min":0,"x_max":0,"o":"m 254 0 l 254 356 b 422 535 254 458 318 535 b 561 393 515 535 561 486 l 561 361 l 769 361 l 769 419 b 486 713 769 589 667 713 b 265 607 381 713 313 667 l 251 607 l 238 694 l 46 694 l 46 0 z "},"s":{"ha":814,"x_min":0,"x_max":0,"o":"m 25 268 b 425 -21 54 83 197 -21 b 779 204 636 -21 779 56 b 543 411 779 317 694 385 l 328 449 b 258 501 274 458 258 474 b 392 557 258 536 293 557 b 561 443 492 557 543 519 l 771 443 b 392 715 747 613 607 715 b 44 496 190 715 44 638 b 276 296 44 383 133 319 l 489 260 b 565 199 549 250 565 229 b 425 138 565 161 528 138 b 235 268 314 138 254 179 z "},"t":{"ha":553,"x_min":0,"x_max":0,"o":"m 140 514 l 140 183 b 340 0 140 47 194 0 l 525 0 l 525 175 l 389 175 b 349 214 358 175 349 183 l 349 514 l 517 514 l 517 681 l 349 681 l 349 861 l 140 815 l 140 681 l 7 681 l 7 514 z "},"u":{"ha":854,"x_min":0,"x_max":0,"o":"m 600 694 l 600 347 b 410 157 600 222 522 157 b 250 346 288 157 250 217 l 250 694 l 42 694 l 42 315 b 354 -21 42 88 167 -21 b 589 88 458 -21 542 26 l 603 88 l 617 0 l 808 0 l 808 694 z "},"v":{"ha":889,"x_min":0,"x_max":0,"o":"m 313 0 l 576 0 l 886 694 l 654 694 l 454 169 l 435 169 l 235 694 l 3 694 z "},"w":{"ha":1275,"x_min":0,"x_max":0,"o":"m 203 0 l 492 0 l 638 493 l 783 0 l 1072 0 l 1271 694 l 1050 694 l 932 169 l 918 169 l 767 694 l 508 694 l 357 169 l 343 169 l 225 694 l 4 694 z "},"x":{"ha":850,"x_min":0,"x_max":0,"o":"m 264 0 l 425 225 l 586 0 l 850 0 l 567 354 l 839 694 l 575 694 l 425 479 l 275 694 l 11 694 l 283 354 l 0 0 z "},"y":{"ha":888,"x_min":0,"x_max":0,"o":"m 306 0 l 386 0 l 371 -37 b 307 -75 358 -69 351 -75 l 121 -75 l 121 -250 l 349 -250 b 519 -136 451 -250 479 -228 l 885 694 l 653 694 l 451 169 l 432 169 l 235 694 l 3 694 z "},"z":{"ha":778,"x_min":0,"x_max":0,"o":"m 747 0 l 747 176 l 274 171 l 738 488 l 738 694 l 35 694 l 35 518 l 494 524 l 31 207 l 31 0 z "},".":{"ha":372,"x_min":0,"x_max":0,"o":"m 28 107 b 186 -18 28 38 92 -18 b 344 107 281 -18 344 38 b 186 232 344 176 281 232 b 28 107 92 232 28 176 z "},",":{"ha":372,"x_min":0,"x_max":0,"o":"m 88 172 l 28 -160 l 167 -160 l 344 172 z "}}}
